HIERARCHY
ROOT ui
{
	 OFFSET 0 0 0
	 CHANNELS 3 XPosition YPosition Z Position
	 EndSite
	 {
	 OFFSET 0 -1 0
	 }
}
ROOT li
{
	 OFFSET 0 0 0
	 CHANNELS 3 XPosition YPosition Z Position
	 EndSite
	 {
	 OFFSET 0 -1 0
	 }
}
ROOT ul
{
	 OFFSET 0 0 0
	 CHANNELS 3 XPosition YPosition Z Position
	 EndSite
	 {
	 OFFSET 0 -1 0
	 }
}
ROOT ll
{
	 OFFSET 0 0 0
	 CHANNELS 3 XPosition YPosition Z Position
	 EndSite
	 {
	 OFFSET 0 -1 0
	 }
}
ROOT tt
{
	 OFFSET 0 0 0
	 CHANNELS 3 XPosition YPosition Z Position
	 EndSite
	 {
	 OFFSET 0 -1 0
	 }
}
ROOT tb
{
	 OFFSET 0 0 0
	 CHANNELS 3 XPosition YPosition Z Position
	 EndSite
	 {
	 OFFSET 0 -1 0
	 }
}
ROOT td
{
	 OFFSET 0 0 0
	 CHANNELS 3 XPosition YPosition Z Position
	 EndSite
	 {
	 OFFSET 0 -1 0
	 }
}
ROOT v
{
	 OFFSET 0 0 0
	 CHANNELS 3 XPosition YPosition Z Position
	 EndSite
	 {
	 OFFSET 0 -1 0
	 }
}
ROOT bn
{
	 OFFSET 0 0 0
	 CHANNELS 3 XPosition YPosition Z Position
	 EndSite
	 {
	 OFFSET 0 -1 0
	 }
}
MOTION
Frames: 27
Frame Time: 0.002
0.019039299011230467	-0.0072054238319396976	0		0.467203125	-2.343365966796875	0		-0.9990442504882813	0.19045811462402343	0		-0.5958478393554687	-2.72908056640625	0		1.6054886474609376	-0.31561349487304685	0		3.13561865234375	0.26694876098632814	0		4.28955126953125	0.64426611328125	0		5.945896484375	0.5238064575195313	0		-0.22509727478027344	5.84423583984375	0		
0.01267487335205078	-0.001219180941581726	0		0.4637040710449219	-2.34443017578125	0		-1.004529541015625	0.18844155883789063	0		-0.539296875	-2.727055419921875	0		1.604043212890625	-0.3147216491699219	0		3.147439697265625	0.28462127685546873	0		4.29134716796875	0.6600794067382812	0		5.9483369140625	0.5165881958007813	0		-0.22548786926269532	5.84413330078125	0		
0.011201461791992188	-3.1070199608802796E-4	0		0.46220571899414065	-2.3435263671875	0		-1.0000785522460938	0.18426913452148438	0		-0.6185285034179687	-2.707943115234375	0		1.6517144775390624	-0.30458511352539064	0		3.154952880859375	0.2843580627441406	0		4.3020947265625	0.674756103515625	0		5.94199267578125	0.525509521484375	0		-0.3602371826171875	5.8240927734375	0		
0.011594888687133788	-0.007438720226287842	0		0.46273049926757814	-2.340659912109375	0		-0.989730712890625	0.17399728393554686	0		-0.6071470947265625	-2.714234375	0		1.6143096923828124	-0.2981455078125	0		3.14778125	0.305319580078125	0		4.31283203125	0.68943017578125	0		5.948529296875	0.5272308959960937	0		-0.22635696411132813	5.84391748046875	0		
0.008244131088256836	0.0014818309545516968	0		0.43834765625	-2.332419677734375	0		-0.9852811889648437	0.16980438232421874	0		-0.6123966674804687	-2.697279052734375	0		1.6619967041015624	-0.28702401733398436	0		3.1652763671875	0.30389208984375	0		4.321701171875	0.71212890625	0		5.95118212890625	0.53601025390625	0		-0.2268140106201172	5.84279541015625	0		
0.006795211791992188	0.0023575809001922608	0		0.48776992797851565	-2.33933154296875	0		-0.98672900390625	0.17068647766113282	0		-0.61386279296875	-2.696399169921875	0		1.663607177734375	-0.28220553588867187	0		3.18799609375	0.3153765869140625	0		4.33016357421875	0.70682373046875	0		5.947767578125	0.5388786010742187	0		-0.22724114990234376	5.8426572265625	0		
0.01030778980255127	-0.0018617390394210815	0		0.43343310546875	-2.332660400390625	0		-0.9822158203125	0.16645616149902343	0		-0.577273681640625	-2.695125244140625	0		1.681178466796875	-0.28264846801757815	0		3.175481201171875	0.30938995361328125	0		4.33197216796875	0.72161376953125	0		5.93325390625	0.5329105834960938	0		-0.22864036560058593	5.842515625	0		
9.80883002281189E-4	0.0010961480140686036	0		0.4849847717285156	-2.33764306640625	0		-0.9867586669921875	0.15534130859375	0		-0.6573681640625	-2.676072998046875	0		1.6798189697265624	-0.28181817626953126	0		3.184106689453125	0.30906219482421876	0		4.34462939453125	0.723220947265625	0		5.9398955078125	0.5336060791015625	0		-0.36232217407226563	5.822388671875	0		
0.004605885982513428	-0.003171619892120361	0		0.432798828125	-2.329049560546875	0		-1.0420802001953124	0.15498388671875	0		-0.6057364501953125	-2.680080078125	0		1.7076875	-0.270459716796875	0		3.215836669921875	0.3113583679199219	0		4.34843994140625	0.7309469604492187	0		5.93859912109375	0.5344081420898438	0		-0.3323546142578125	5.8397177734375	0		
0.011347114562988281	-0.0045155901908874516	0		0.4636468200683594	-2.323763916015625	0		-1.0772415771484376	0.16028591918945312	0		-0.66770751953125	-2.662363037109375	0		1.69360107421875	-0.2604800109863281	0		3.214948486328125	0.3341372375488281	0		4.3734404296875	0.74632666015625	0		5.9485087890625	0.54402099609375	0		-0.2295674285888672	5.84089306640625	0		
0.005275640964508057	0.0013074510097503662	0		0.4604591674804687	-2.32598486328125	0		-1.032612548828125	0.14632164001464842	0		-0.5969182739257812	-2.666727783203125	0		1.753476318359375	-0.2586684265136719	0		3.196476806640625	0.3141586608886719	0		4.3742890625	0.7470564575195312	0		5.93937451171875	0.545909912109375	0		-0.23073541259765626	5.841638671875	0		
0.009132372856140136	-0.0030574159622192383	0		0.48432818603515626	-2.33065478515625	0		-1.0726744384765625	0.14762753295898437	0		-0.632916748046875	-2.662481201171875	0		1.756473388671875	-0.2540079498291016	0		3.232481689453125	0.3193196716308594	0		4.3921083984375	0.740503662109375	0		5.941181640625	0.5386135864257813	0		-0.2308533477783203	5.84133349609375	0		
0.005108185768127441	-0.005336159229278564	0		0.45439117431640624	-2.328529296875	0		-1.0319364013671875	0.12964724731445312	0		-0.5989197387695312	-2.665351318359375	0		1.7585587158203124	-0.24936302185058593	0		3.224485595703125	0.3191334533691406	0		4.37933984375	0.75540380859375	0		5.9401982421875	0.5393456420898437	0		-0.3642266845703125	5.821041015625	0		
-7.032989859580993E-4	3.766230046749115E-4	0		0.4575939636230469	-2.32394873046875	0		-1.06170068359375	0.1387151641845703	0		-0.6635813598632813	-2.65173974609375	0		1.7825623779296875	-0.25608712768554687	0		3.24580517578125	0.333472412109375	0		4.40145361328125	0.7567442016601562	0		5.93544091796875	0.54912109375	0		-0.2289319610595703	5.83757861328125	0		
0.0034204370975494383	-0.004102083206176757	0		0.4588806762695313	-2.32037451171875	0		-1.046611328125	0.13204954528808593	0		-0.6242935791015625	-2.6487685546875	0		1.80398046875	-0.2417988739013672	0		3.257753173828125	0.317927490234375	0		4.40574853515625	0.7643392333984375	0		5.93775537109375	0.55777294921875	0		-0.2298304443359375	5.838171875	0		
8.352180123329162E-4	0.004486380100250244	0		0.4582211608886719	-2.31980615234375	0		-1.0793953857421874	0.12807783508300782	0		-0.6317611694335937	-2.636116943359375	0		1.827335693359375	-0.23757106018066407	0		3.304232177734375	0.33083184814453126	0		4.412130859375	0.77188232421875	0		5.9450498046875	0.5593335571289062	0		-0.2306615447998047	5.83872607421875	0		
-0.0028283538818359376	0.002052515983581543	0		0.48258108520507814	-2.324657470703125	0		-1.0350982666015625	0.12288211059570313	0		-0.59633349609375	-2.6371640625	0		1.8497823486328124	-0.23335897827148439	0		3.26150390625	0.32507757568359374	0		4.42759912109375	0.77926513671875	0		5.9524169921875	0.5598776245117187	0		-0.24557514953613283	5.82945556640625	0		
0.0015669440031051635	-0.002542680025100708	0		0.4531212158203125	-2.323719970703125	0		-1.0786854248046875	0.1199923095703125	0		-0.629707763671875	-2.63119580078125	0		1.880441162109375	-0.22130250549316408	0		3.307946533203125	0.323929931640625	0		4.45393994140625	0.7724563598632812	0		5.9528583984375	0.5595079956054687	0		-0.3985216064453125	5.81425634765625	0		
0.0011295299530029296	-0.00210131311416626	0		0.45682940673828126	-2.31832666015625	0		-1.067280517578125	0.11021922302246094	0		-0.6460185546875	-2.627529541015625	0		1.89020751953125	-0.2079588317871094	0		3.321238037109375	0.30725894165039064	0		4.43258837890625	0.7803511962890625	0		5.9604033203125	0.5600060424804687	0		-0.3621075744628906	5.81612060546875	0		
0.003827286958694458	0.0012542999982833862	0		0.46061712646484376	-2.3139716796875	0		-1.0566483154296875	0.1094189224243164	0		-0.6371300048828125	-2.617287109375	0		1.9061845703125	-0.18674226379394532	0		3.321215576171875	0.3297653503417969	0		4.4664248046875	0.7943765869140625	0		5.95516015625	0.568675537109375	0		-0.23032344055175782	5.83649755859375	0		
0.003568696975708008	0.0016163140535354614	0		0.4843606872558594	-2.318957763671875	0		-1.062833984375	0.11483448028564452	0		-0.6372970581054688	-2.616947509765625	0		1.9130533447265625	-0.1784210662841797	0		3.3165205078125	0.30230731201171873	0		4.46203271484375	0.7879561157226562	0		5.95077587890625	0.5623070678710937	0		-0.23078591918945313	5.8368515625	0		
3.5266399383544923E-4	-0.0010156569480895996	0		0.4562958984375	-2.317193115234375	0		-1.062145751953125	0.10610224914550781	0		-0.6142958374023437	-2.61199853515625	0		1.960065673828125	-0.166740478515625	0		3.33133642578125	0.3025274047851563	0		4.46183203125	0.7884468994140625	0		5.95058349609375	0.5628541259765625	0		-0.2585078125	5.81557666015625	0		
2.67538994550705E-4	-7.33560025691986E-4	0		0.4812262268066406	-2.322269775390625	0		-1.0744000244140626	0.09552392578125	0		-0.6591036376953125	-2.6000625	0		1.96404736328125	-0.16243984985351562	0		3.3472373046875	0.3027026672363281	0		4.48762109375	0.7825175170898437	0		5.962580078125	0.5701953125	0		-0.36381680297851565	5.817435546875	0		
2.6571598649024965E-4	-4.916200041770935E-4	0		0.430435791015625	-2.3142392578125	0		-1.0684971923828126	0.0896297836303711	0		-0.643025390625	-2.60208984375	0		2.01586572265625	-0.17489578247070312	0		3.35732666015625	0.3099373474121094	0		4.4926904296875	0.789876708984375	0		5.971552734375	0.57055859375	0		-0.3630845947265625	5.816646484375	0		
3.447070121765137E-4	-2.898499965667725E-4	0		0.48456961059570314	-2.317828857421875	0		-1.0643626708984375	0.09372202301025391	0		-0.673718505859375	-2.594452392578125	0		2.0119981689453126	-0.17154188537597656	0		3.3640751953125	0.28919009399414064	0		4.50573193359375	0.7900889282226562	0		5.97062060546875	0.572048828125	0		-0.22898667907714843	5.83481591796875	0		
-0.004422513961791992	0.004946125030517578	0		0.45888821411132813	-2.31425439453125	0		-1.0682694091796876	0.08989190673828125	0		-0.6143958740234375	-2.5922080078125	0		2.06239794921875	-0.15603257751464844	0		3.3893203125	0.29614108276367185	0		4.50564111328125	0.77647265625	0		5.9658701171875	0.5805767211914062	0		-0.22911497497558594	5.83496630859375	0		
7.353950142860412E-4	-6.9140000268816945E-6	0		0.48213552856445313	-2.32145166015625	0		-1.0720850830078126	0.08701737976074218	0		-0.6510079956054687	-2.590566650390625	0		2.073832275390625	-0.14296913146972656	0		3.385448974609375	0.2904999389648438	0		4.5278310546875	0.7765010986328125	0		5.96683447265625	0.5649967041015626	0		-0.22918666076660157	5.8350751953125	0		
